<svg width="32" height="32" viewBox="0 0 32 32" fill="none" xmlns="http://www.w3.org/2000/svg">
<path d="M15.9862 31.9192L6.75121 29.3554L4.69319 6.27289H27.3068L25.2467 29.3519L15.9862 31.9192V31.9192Z" fill="#264DE4"/>
<path d="M23.4829 27.8823L25.2434 8.16018H16V29.9568L23.4829 27.8823V27.8823Z" fill="#2965F1"/>
<path d="M9.4111 16.7212L9.6648 19.5522H16V16.7212H9.4111ZM8.90123 10.9912L9.15856 13.8222H16V10.9912H8.90123V10.9912ZM16 24.0736L15.9876 24.0769L12.8347 23.2255L12.6332 20.9677H9.79129L10.1879 25.4128L15.987 27.0225L16 27.019V24.0736Z" fill="#EBEBEB"/>
<path d="M10.0152 0H13.4439V1.43388H11.4491V2.86777H13.4441V4.30156H10.0152V0ZM14.1297 0H17.5585V1.24685H15.5636V1.4962H17.5585V4.36397H14.1298V3.05463H16.1247V2.80527H14.1296V0H14.1297ZM18.2443 0H21.6731V1.24685H19.6782V1.4962H21.6731V4.36397H18.2443V3.05463H20.2392V2.80527H18.2444V0H18.2443Z" fill="white"/>
<path d="M22.5708 16.7212L23.0818 10.9912H15.9902V13.8222H19.9793L19.7217 16.7212H15.9902V19.5522H19.4763L19.1476 23.2238L15.9902 24.076V27.0212L21.7939 25.4128L21.8364 24.9345L22.5018 17.4814L22.5708 16.7212V16.7212Z" fill="white"/>
</svg>
