<svg width="32" height="32" viewBox="0 0 32 32" fill="none" xmlns="http://www.w3.org/2000/svg">
<path d="M27.3068 6.27286L25.2466 29.3518L15.9862 31.9191L6.75118 29.3555L4.69321 6.27286H27.3068Z" fill="#E44D26"/>
<path d="M16 29.9568L23.4829 27.8822L25.2435 8.1602H16V29.9568Z" fill="#F16529"/>
<path d="M11.9952 13.8222H16V10.9912H8.90125L8.96901 11.7507L9.66481 19.5522H16V16.7212H12.2539L11.9952 13.8222Z" fill="#EBEBEB"/>
<path d="M12.6332 20.9677H9.79129L10.1879 25.4128L15.987 27.0226L16 27.019V24.0736L15.9876 24.0769L12.8347 23.2255L12.6332 20.9677Z" fill="#EBEBEB"/>
<path d="M6.7972 0H8.23586V1.4214H9.55191V0H10.9906V4.30435H9.55197V2.863H8.23593V4.30435H6.79726V0H6.7972Z" fill="white"/>
<path d="M12.8825 1.42738H11.616V0H15.5884V1.42738H14.3213V4.30435H12.8826V1.42738H12.8825Z" fill="white"/>
<path d="M16.2189 0H17.719L18.6418 1.51242L19.5636 0H21.0643V4.30435H19.6316V2.17088L18.6418 3.70131H18.617L17.6266 2.17088V4.30435H16.2189V0Z" fill="white"/>
<path d="M21.7804 0H23.2195V2.88158H25.2427V4.30435H21.7804V0Z" fill="white"/>
<path d="M15.9902 19.5522H19.4762L19.1476 23.2237L15.9902 24.076V27.0212L21.7939 25.4128L21.8365 24.9345L22.5017 17.4814L22.5708 16.7212H15.9902V19.5522Z" fill="white"/>
<path d="M15.9902 13.8153V13.8222H22.8284L22.8852 13.1859L23.0142 11.7507L23.0819 10.9912H15.9902V13.8153Z" fill="white"/>
</svg>
