<svg width="29" height="32" viewBox="0 0 12 20" fill="none" xmlns="http://www.w3.org/2000/svg">
<path d="M12 3.91919H0L1.12497 18.3631L5.99939 20L10.8738 18.3631L12 3.91919Z" fill="#E6A329"/>
<path d="M5.99939 5.09599V18.776L9.94878 17.4513L10.9095 5.09599H5.99939Z" fill="#F1BF22"/>
<path d="M9.14137 6.86795H3.06896L2.64601 12.2754L2.65472 12.2417H7.81355L7.64553 14.5297L5.99954 15.0903L4.32927 14.5206L4.22922 13.1358H2.71307L2.92935 15.9028L5.99954 16.9348L9.0711 15.9028L9.49406 10.4716H4.01904L4.0893 8.66198H7.88794L7.94476 9.69879H9.47374L9.14137 6.86795Z" fill="white"/>
<path d="M6.00076 6.86795H3.06896L2.64601 12.2754L2.65472 12.2417H6.00061V10.4777H4.23258L4.30284 8.66813H6.00076V6.86795ZM4.23258 13.1367H2.71291L2.9292 15.9023L5.99939 16.9331V15.0928L4.32912 14.5217L4.23258 13.1367Z" fill="#EBEBEB"/>
<path d="M4.83257 1.78879H3.76427V2.69683H5.59721V0H4.83349L4.83257 1.78879ZM8.23528 0.014468H6.37301V0.958504C6.62168 1.25293 6.75136 1.39453 7.11764 1.82098H6.37301V2.68182H8.23513V1.82242L7.49126 0.959951H8.23589L8.23528 0.014468Z" fill="white"/>
</svg>
