<svg xmlns="http://www.w3.org/2000/svg" width="512" height="512"><g fill="#1A1A1A" fill-rule="evenodd" clip-rule="evenodd"><path d="M434.478 16H77.519C43.718 16 16 43.72 16 77.522v356.955C16 468.281 43.718 496 77.519 496h356.959C468.281 496 496 468.281 496 434.478V77.522C496 43.72 468.281 16 434.478 16zM416 223.124v131.147C416 388.394 388.384 416 354.253 416h-196.55C123.555 416 96 388.394 96 354.271v-196.57C96 123.568 123.555 96 157.703 96h196.55C388.384 96 416 123.568 416 157.701v65.423z"/><path d="M255.989 312.355c31.068 0 56.399-25.302 56.399-56.376 0-9.967-2.703-19.34-7.292-27.498-1.052-1.832-2.154-3.656-3.398-5.357-10.266-14.203-26.897-23.506-45.709-23.506-18.823 0-35.462 9.303-45.721 23.506-1.233 1.701-2.343 3.525-3.388 5.357-4.6 8.151-7.291 17.518-7.291 27.498.001 31.075 25.302 56.376 56.4 56.376zM379 187.002v-54.309l-7.027.046-47.213.143.177 54.3z"/><path d="M340.218 232.076c2.162 7.6 3.366 15.609 3.366 23.873 0 48.305-39.296 87.609-87.595 87.609-48.3 0-87.604-39.281-87.604-87.586 0-8.264 1.197-16.3 3.353-23.892a93.966 93.966 0 0 1 3.087-9.08H127v131.271C127 371.207 140.774 385 157.703 385h196.55C371.186 385 385 371.207 385 354.271V223h-47.884c1.208 3 2.221 6.007 3.102 9.076z"/></g></svg>