<svg xmlns="http://www.w3.org/2000/svg" width="512" height="512"><g fill="#1A1A1A" fill-rule="evenodd" clip-rule="evenodd"><path d="M258.905 120.652c-68.588 0-125.121 52.068-131.604 118.473-.392 4.182-.616 8.43-.616 12.743 0 28.692 9.344 55.274 25.167 76.912l-16.523 48.717 50.813-16.153c20.887 13.712 45.895 21.703 72.756 21.703 72.9 0 132.234-58.852 132.234-131.197 0-3.457-.178-6.881-.446-10.255-5.299-67.55-62.355-120.943-131.781-120.943zm77.163 185.333c-3.229 8.935-18.964 17.564-26.023 18.192-7.056.646-7.056 5.749-46.282-9.569-39.166-15.315-63.923-55.206-65.827-57.757-1.473-1.926-9.878-13.022-13.756-26.527-1.215-4.175-1.995-8.586-1.995-13.026 0-18.822 9.965-28.065 13.506-31.878 3.519-3.834 7.693-4.817 10.272-4.817 2.568 0 5.137.316 7.382.316 2.26 0 5.459-1.273 8.673 6.388 3.207 7.657 10.938 26.477 11.892 28.402.968 1.908 1.617 4.146.322 6.711-.918 1.788-1.513 3.127-2.463 4.534-.392.588-.834 1.19-1.393 1.832-1.927 2.231-4.049 4.984-5.79 6.693-1.922 1.922-3.95 3.982-1.69 7.795 2.231 3.853 9.986 16.359 21.435 26.498 14.734 13.026 27.159 17.086 31.004 18.99 3.859 1.926 6.104 1.581 8.351-.961 2.245-2.562 9.646-11.158 12.213-14.996 2.565-3.827 5.134-3.178 8.674-1.908 3.537 1.263 22.501 10.52 26.343 12.442 3.863 1.9 6.431 2.861 7.403 4.462.945 1.571.945 9.247-2.251 18.184z"/><path d="M434.478 16H77.519C43.718 16 16 43.718 16 77.519v356.959C16 468.281 43.718 496 77.519 496h356.959C468.281 496 496 468.281 496 434.478V77.519C496 43.718 468.281 16 434.478 16zM258.905 407.921c-27.564 0-53.482-7.052-76.021-19.422l-87.073 27.678 28.363-83.747c-14.311-23.517-22.552-51.085-22.552-80.562 0-2.314.069-4.593.174-6.882 3.632-83.007 72.567-149.183 157.108-149.183 85.514 0 155.033 67.75 157.174 152.085.018 1.327.091 2.63.091 3.979.001 86.196-70.4 156.054-157.264 156.054z"/></g></svg>