<!-- Generated by IcoMoon.io -->
<svg version="1.1" xmlns="http://www.w3.org/2000/svg" width="768" height="768" viewBox="0 0 768 768">
<title></title>
<g id="icomoon-ignore">
</g>
<path d="M224 96c-70.693 0-128 57.308-128 128v320c0 70.691 57.308 128 128 128h320c70.691 0 128-57.309 128-128v-320c0-70.693-57.309-128-128-128h-320zM31.999 224c0-106.039 85.961-192 192-192h320c106.039 0 192 85.961 192 192v320c0 106.039-85.961 192-192 192h-320c-106.039 0-192-85.961-192-192v-320z"></path>
<path d="M399.466 287.656c-19.975-2.962-40.371 0.45-58.294 9.75s-32.459 24.015-41.537 42.050c-9.079 18.038-12.238 38.476-9.030 58.413s12.62 38.352 26.898 52.63c14.277 14.279 32.696 23.69 52.632 26.899 19.933 3.206 40.375 0.048 58.409-9.031 18.038-9.079 32.752-23.613 42.051-41.536 9.302-17.924 12.713-38.323 9.751-58.298-3.021-20.375-12.515-39.236-27.079-53.799s-33.428-24.058-53.801-27.079zM311.693 240.598c29.872-15.5 63.871-21.186 97.161-16.25 33.956 5.035 65.392 20.858 89.667 45.133s40.096 55.71 45.133 89.668c4.934 33.289-0.748 67.286-16.25 97.159s-40.025 54.096-70.087 69.229c-30.061 15.13-64.128 20.397-97.354 15.050s-63.921-21.034-87.718-44.832c-23.797-23.795-39.484-54.49-44.83-87.718-5.347-33.226-0.080-67.293 15.050-97.352 15.13-30.061 39.354-54.585 69.226-70.085z"></path>
<path d="M528 208c0-17.673 14.327-32 32-32h0.32c17.674 0 32 14.327 32 32s-14.327 32-32 32h-0.32c-17.674 0-32-14.327-32-32z"></path>
</svg>
