<!-- Generated by IcoMoon.io -->
<svg version="1.1" xmlns="http://www.w3.org/2000/svg" width="768" height="768" viewBox="0 0 768 768">
<title></title>
<g id="icomoon-ignore">
</g>
<path d="M531.2 448c-6.4-3.2-48-22.4-54.4-25.6s-12.8-3.2-19.2 3.2c-6.4 6.4-19.2 25.6-25.6 32-3.2 6.4-9.6 6.4-16 3.2-22.4-9.6-44.8-22.4-64-38.4-16-16-32-35.2-44.8-54.4-3.2-6.4 0-12.8 3.2-16s6.4-9.6 12.8-12.8c3.2-3.2 6.4-9.6 6.4-12.8 3.2-3.2 3.2-9.601 0-12.801s-19.2-41.6-25.6-57.6c-3.2-22.4-9.6-22.4-16-22.4-3.2 0-9.6 0-16 0s-16 6.4-19.2 9.6c-19.2 19.2-28.8 41.6-28.8 67.2 3.2 28.801 12.8 57.601 32 83.2 35.2 51.2 80 92.8 134.4 118.4 16 6.4 28.8 12.8 44.8 16 16 6.4 32 6.4 51.2 3.2 22.4-3.2 41.6-19.2 54.4-38.4 6.4-12.8 6.4-25.6 3.2-38.4 0 0-6.4-3.2-12.8-6.4zM611.2 156.799c-124.8-124.8-326.4-124.8-451.2 0-102.4 102.4-121.6 259.201-51.2 384.001l-44.8 163.2 169.6-44.8c48 25.6 99.2 38.4 150.4 38.4 176 0 316.8-140.8 316.8-316.8 3.2-83.201-32-163.201-89.6-224.001zM524.8 604.8c-41.6 25.6-89.6 41.6-140.8 41.6-48 0-92.8-12.8-134.4-35.2l-9.6-6.4-99.2 25.6 25.6-96-6.4-9.6c-76.8-128-38.4-288.001 86.4-368.001s284.8-38.4 361.6 83.2c76.8 124.801 41.6 288.001-83.2 364.801z"></path>
</svg>
