<?xml version="1.0" encoding="iso-8859-1"?>
<!-- Generator: Adobe Illustrator 19.0.0, SVG Export Plug-In . SVG Version: 6.00 Build 0)  -->
<svg version="1.1" id="Layer_1" xmlns="http://www.w3.org/2000/svg" xmlns:xlink="http://www.w3.org/1999/xlink" x="0px" y="0px"
	 viewBox="0 0 512 512" style="enable-background:new 0 0 512 512;" xml:space="preserve">
	 <style type="text/css">
	.stone_een{fill: #ffffff;}
</style>
<g>
	<g>
		<path class="stone_een" d="M452.885,21.333H59.115C26.517,21.333,0,47.851,0,80.448v244.437C0,357.483,26.517,384,59.115,384h252.053
			l100.416,100.416c4.075,4.075,9.536,6.251,15.083,6.251c2.752,0,5.525-0.533,8.171-1.621c7.979-3.307,13.163-11.093,13.163-19.712
			V384h4.885C485.483,384,512,357.483,512,324.885V80.448C512,47.851,485.483,21.333,452.885,21.333z M384,256H128
			c-11.797,0-21.333-9.557-21.333-21.333s9.536-21.333,21.333-21.333h256c11.797,0,21.333,9.557,21.333,21.333S395.797,256,384,256z
			 M384,170.667H192c-11.797,0-21.333-9.557-21.333-21.333S180.203,128,192,128h192c11.797,0,21.333,9.557,21.333,21.333
			S395.797,170.667,384,170.667z"/>
	</g>
</g>
<g>
</g>
<g>
</g>
<g>
</g>
<g>
</g>
<g>
</g>
<g>
</g>
<g>
</g>
<g>
</g>
<g>
</g>
<g>
</g>
<g>
</g>
<g>
</g>
<g>
</g>
<g>
</g>
<g>
</g>
</svg>
