<svg width="32" height="32" viewBox="0 0 32 32" fill="none" xmlns="http://www.w3.org/2000/svg">
<path d="M0 21.6675V2.2925C0 1.9525 0.295 1.6675 0.655 1.6675H31.35C31.705 1.6675 32 1.9525 32 2.2925V21.6675H0Z" fill="white"/>
<path d="M32 21.6675V24.3325C32 24.7025 31.705 25.0025 31.345 25.0025H0.655C0.295 25.0025 0 24.7025 0 24.3375V21.6725H32V21.6675Z" fill="white"/>
<path d="M20.665 29.6675H11.335L12 25.0025H20L20.665 29.6675Z" fill="white"/>
<path d="M12 25.0025H20L20.415 27.9125L11.845 26.0875L12 25.0025Z" fill="white"/>
<path d="M23 29.6675H9V30.3325H23V29.6675Z" fill="white"/>
<path d="M9.33 5.0075C9.70003 5.0075 10 4.70753 10 4.3375C10 3.96747 9.70003 3.6675 9.33 3.6675C8.95997 3.6675 8.66 3.96747 8.66 4.3375C8.66 4.70753 8.95997 5.0075 9.33 5.0075Z" fill="black"/>
<path d="M6.665 5.0075C7.03503 5.0075 7.335 4.70753 7.335 4.3375C7.335 3.96747 7.03503 3.6675 6.665 3.6675C6.29497 3.6675 5.995 3.96747 5.995 4.3375C5.995 4.70753 6.29497 5.0075 6.665 5.0075Z" fill="black"/>
<path d="M4 5.0075C4.37003 5.0075 4.67 4.70753 4.67 4.3375C4.67 3.96747 4.37003 3.6675 4 3.6675C3.62997 3.6675 3.33 3.96747 3.33 4.3375C3.33 4.70753 3.62997 5.0075 4 5.0075Z" fill="black"/>
<path d="M28.665 4.0025H11.33V4.6675H28.665V4.0025Z" fill="#999999"/>
<path d="M27.325 15.6675H13.325V16.3325H27.325V15.6675Z" fill="#BCBCBC"/>
<path d="M27.325 17.0025H13.325V17.6675H27.325V17.0025Z" fill="#BCBCBC"/>
<path d="M27.325 18.3375H13.325V19.0025H27.325V18.3375Z" fill="#BCBCBC"/>
<path d="M13.99 13.6675H13.325V14.3325H13.99V13.6675Z" fill="black"/>
<path d="M15.32 13.6675H14.655V14.3325H15.32V13.6675Z" fill="black"/>
<path d="M16.655 13.6675H15.99V14.3325H16.655V13.6675Z" fill="black"/>
<path d="M17.99 13.6675H17.325V14.3325H17.99V13.6675Z" fill="black"/>
<path d="M19.32 13.6675H18.655V14.3325H19.32V13.6675Z" fill="black"/>
<path d="M20.655 13.6675H19.99V14.3325H20.655V13.6675Z" fill="black"/>
<path d="M21.99 13.6675H21.325V14.3325H21.99V13.6675Z" fill="black"/>
<path d="M23.32 13.6675H22.655V14.3325H23.32V13.6675Z" fill="black"/>
<path d="M24.655 13.6675H23.99V14.3325H24.655V13.6675Z" fill="black"/>
<path d="M25.99 13.6675H25.325V14.3325H25.99V13.6675Z" fill="black"/>
<path d="M27.32 13.6675H26.655V14.3325H27.32V13.6675Z" fill="black"/>
<path d="M7.99 10.9575C8.89851 10.9575 9.635 10.221 9.635 9.3125C9.635 8.40399 8.89851 7.6675 7.99 7.6675C7.08149 7.6675 6.345 8.40399 6.345 9.3125C6.345 10.221 7.08149 10.9575 7.99 10.9575Z" fill="black"/>
<path d="M7.91 14.7825L6.32 11.3375C6.32 11.3375 4.655 11.3575 4.655 12.8925C4.655 14.4275 4.655 14.7825 4.655 14.7825C4.655 14.7825 7.925 14.7825 7.91 14.7825Z" fill="black"/>
<path d="M8.06499 14.7825L9.65499 11.3375C9.65499 11.3375 11.32 11.3575 11.32 12.8925C11.32 14.4275 11.32 14.7825 11.32 14.7825C11.32 14.7825 8.05499 14.7825 8.06499 14.7825Z" fill="black"/>
<path d="M7.99 11.3375H6.845L7.99 13.8675L9.135 11.3375H7.99Z" fill="#FF6600"/>
<path d="M16.655 7.6675H12.655V11.6675H16.655V7.6675Z" fill="black"/>
<path d="M21.99 7.6675H17.99V11.6675H21.99V7.6675Z" fill="#FF6600"/>
<path d="M27.325 7.6675H23.325V11.6675H27.325V7.6675Z" fill="#FF6600"/>
<path d="M11.32 17.0025H4.655V17.6675H11.32V17.0025Z" fill="#FF6600"/>
<path d="M9.99 18.3375H5.99V19.0025H9.99V18.3375Z" fill="#FF6600"/>
<path opacity="0.2" d="M28.795 1.6675H0.655C0.295 1.6675 0 1.9525 0 2.2925V13.5075L28.795 1.6675Z" fill="white"/>
</svg>
