<svg width="32" height="32" viewBox="0 0 32 32" fill="none" xmlns="http://www.w3.org/2000/svg">
<path d="M15.4639 31.8512L5.02996 25.5903C4.71409 25.4028 4.52246 25.0624 4.52246 24.6956V18.1569C4.52246 17.3398 5.4184 16.8469 6.10196 17.2622L11.6651 20.5985L15.2623 17.0013C15.6698 16.5937 16.3303 16.5937 16.7378 17.0013L20.335 20.5985L25.8989 17.2622C26.591 16.8443 27.4784 17.3451 27.4784 18.1569V24.6956C27.4784 25.0624 27.2868 25.4028 26.9709 25.5903L16.5359 31.8512C16.2094 32.0488 15.7932 32.0504 15.4639 31.8512Z" fill="#32BBFF"/>
<path d="M16.536 31.8512L26.9709 25.5903C27.2867 25.4028 27.4784 25.0624 27.4784 24.6956V18.1569C27.4784 17.3451 26.5909 16.8442 25.8989 17.2622L20.335 20.5985L16.7378 17.0013C16.534 16.7975 16.267 16.6956 16.0001 16.6956V31.9997C16.1864 31.9996 16.3725 31.9502 16.536 31.8512Z" fill="#2C9FD9"/>
<path d="M16 18.7825C15.8146 18.7825 15.6291 18.7336 15.464 18.6337L5.02914 12.3728C4.35308 11.9715 4.35308 10.9847 5.02914 10.5833L15.464 4.32242C15.7942 4.12267 16.2059 4.12267 16.536 4.32242L26.9708 10.5833C27.6469 10.9846 27.6469 11.9715 26.9708 12.3728L16.536 18.6337C16.3709 18.7336 16.1855 18.7825 16 18.7825Z" fill="#E6F4FF"/>
<path d="M16.536 18.6337L26.9709 12.3728C27.6469 11.9714 27.6469 10.9846 26.9709 10.5833L16.536 4.32242C16.3709 4.22254 16.1854 4.17267 16 4.17267V18.7825C16.1855 18.7825 16.3709 18.7336 16.536 18.6337Z" fill="#CFDBE6"/>
<path d="M27.9104 11.4781L31.3465 8.04191C31.8187 7.57384 31.7355 6.76128 31.1448 6.40941L20.71 0.148482C20.3064 -0.0960796 19.7766 -0.0349547 19.4362 0.30542L15.9999 3.7416L12.5638 0.30542C12.2214 -0.0349547 11.6935 -0.0960171 11.29 0.148482L0.855098 6.40941C0.264349 6.76128 0.181099 7.57384 0.653348 8.04191L4.08953 11.4781L0.653348 14.9142C0.181162 15.3823 0.264349 16.1948 0.855098 16.5467L11.29 22.8076C11.6918 23.0508 12.2203 22.9942 12.5638 22.6507L15.9999 19.2145L19.4361 22.6507C19.7796 22.9942 20.308 23.0508 20.7099 22.8076L31.1448 16.5467C31.7355 16.1948 31.8188 15.3823 31.3465 14.9142L27.9104 11.4781ZM15.9999 16.5226L7.59233 11.4781L15.9999 6.43347L24.4076 11.478L15.9999 16.5226Z" fill="#59C8FF"/>
<path d="M24.4077 11.4781L16 16.5226V19.2146L19.4362 22.6508C19.7797 22.9942 20.3081 23.0508 20.71 22.8077L31.1448 16.5468C31.7356 16.1948 31.8188 15.3822 31.3466 14.9143L27.9104 11.4781L31.3466 8.04191C31.8188 7.57378 31.7356 6.76128 31.1448 6.40941L20.7101 0.148482C20.3065 -0.0960796 19.7766 -0.0349547 19.4362 0.30542L16 3.7416V6.43347L24.4077 11.4781Z" fill="#19B2FF"/>
</svg>
