<svg width="32" height="32" viewBox="0 0 32 32" fill="none" xmlns="http://www.w3.org/2000/svg">
<path d="M2.46701 11.7375L11.509 7.08051V8.42551L3.88901 12.2445V12.2835L11.509 16.1035V17.4475L2.46701 12.7905V11.7375Z" fill="#FF6600"/>
<path d="M12.781 18.2265L18.217 4.09851H19.542L14.086 18.2265H12.781Z" fill="#FF6600"/>
<path d="M29.815 12.8085L20.773 17.4465V16.1025L28.451 12.2825V12.2435L20.773 8.42451V7.08051L29.815 11.7185V12.8085V12.8085Z" fill="#FF6600"/>
<path d="M4.26599 23.0095C5.42799 23.0095 6.36999 22.0675 6.36999 20.9055C6.36999 19.7435 5.42799 18.8015 4.26599 18.8015C3.10398 18.8015 2.16199 19.7435 2.16199 20.9055C2.16199 22.0675 3.10398 23.0095 4.26599 23.0095Z" fill="#898989"/>
<path d="M4.166 27.9015L2.133 23.4935C2.133 23.4935 0 23.5215 0 25.4845C0 27.4475 0 27.9015 0 27.9015C0 27.9015 4.181 27.9015 4.166 27.9015Z" fill="#898989"/>
<path d="M4.36499 27.9015L6.39799 23.4935C6.39799 23.4935 8.531 23.5215 8.531 25.4845C8.531 27.4475 8.531 27.9015 8.531 27.9015C8.531 27.9015 4.35099 27.9015 4.36499 27.9015Z" fill="#898989"/>
<path d="M4.26599 23.4935H2.80099L4.26599 26.7355L5.72999 23.4935H4.26599Z" fill="#22ACDD"/>
<path d="M16 23.0095C17.162 23.0095 18.104 22.0675 18.104 20.9055C18.104 19.7435 17.162 18.8015 16 18.8015C14.838 18.8015 13.896 19.7435 13.896 20.9055C13.896 22.0675 14.838 23.0095 16 23.0095Z" fill="#898989"/>
<path d="M15.9 27.9015L13.867 23.4935C13.867 23.4935 11.734 23.5215 11.734 25.4845C11.734 27.4475 11.734 27.9015 11.734 27.9015C11.734 27.9015 15.915 27.9015 15.9 27.9015Z" fill="#898989"/>
<path d="M16.1 27.9015L18.133 23.4935C18.133 23.4935 20.266 23.5215 20.266 25.4845C20.266 27.4475 20.266 27.9015 20.266 27.9015C20.266 27.9015 16.085 27.9015 16.1 27.9015Z" fill="#898989"/>
<path d="M16 23.4935H14.535L16 26.7355L17.465 23.4935H16Z" fill="#22ACDD"/>
<path d="M27.734 23.0095C28.896 23.0095 29.838 22.0675 29.838 20.9055C29.838 19.7435 28.896 18.8015 27.734 18.8015C26.572 18.8015 25.63 19.7435 25.63 20.9055C25.63 22.0675 26.572 23.0095 27.734 23.0095Z" fill="#898989"/>
<path d="M27.635 27.9015L25.602 23.4935C25.602 23.4935 23.469 23.5215 23.469 25.4845C23.469 27.4475 23.469 27.9015 23.469 27.9015C23.469 27.9015 27.649 27.9015 27.635 27.9015Z" fill="#898989"/>
<path d="M27.834 27.9015L29.867 23.4935C29.867 23.4935 32 23.5215 32 25.4845C32 27.4475 32 27.9015 32 27.9015C32 27.9015 27.819 27.9015 27.834 27.9015Z" fill="#898989"/>
<path d="M27.734 23.4935H26.27L27.734 26.7355L29.199 23.4935H27.734Z" fill="#22ACDD"/>
</svg>
