<svg width="28" height="32" viewBox="0 0 28 32" fill="none" xmlns="http://www.w3.org/2000/svg">
<path d="M10.4706 25.5656V31.9827H0.195312V25.5656C0.195312 23.8347 1.59912 22.4309 3.33004 22.4309L4.25838 26.2093L6.55449 24.4967L8.85061 26.2093L9.16217 23.0187C9.95486 23.5867 10.4706 24.5165 10.4706 25.5656Z" fill="#88C9B3"/>
<path d="M9.16218 23.0187L8.85062 26.2092L6.5545 24.4967L8.24939 22.5665C8.58003 22.6669 8.88806 22.8209 9.16218 23.0187Z" fill="#51B7A6"/>
<path d="M8.24937 22.5666L6.55448 24.4967L4.74091 22.4309H7.33587C7.65379 22.4309 7.96041 22.4782 8.24937 22.5666Z" fill="#E5DCC6"/>
<path d="M4.74089 22.4309L6.55447 24.4967L4.25835 26.2093L3.33002 22.4309H4.74089Z" fill="#51B7A6"/>
<path d="M7.08465 24.4967H6.0249V31.9823H7.08465V24.4967Z" fill="#51B7A6"/>
<path d="M7.77957 27.7861C7.74495 27.7861 7.70962 27.7825 7.67571 27.7755C7.6418 27.7691 7.60859 27.7585 7.5768 27.7458C7.54501 27.7324 7.51392 27.7161 7.48496 27.697C7.45599 27.6773 7.42915 27.6554 7.40442 27.6306C7.3804 27.6066 7.35779 27.5791 7.33871 27.5501C7.31964 27.5218 7.30339 27.4907 7.28996 27.459C7.27654 27.4272 7.26665 27.3933 7.25959 27.36C7.25323 27.3254 7.24969 27.2908 7.24969 27.2562C7.24969 27.2216 7.25323 27.187 7.25959 27.1523C7.26665 27.1191 7.27654 27.0852 7.28996 27.0534C7.30339 27.0216 7.31964 26.9905 7.33871 26.9623C7.35779 26.9333 7.3804 26.9058 7.40442 26.8817C7.42915 26.857 7.45599 26.8351 7.48496 26.8153C7.51392 26.7963 7.54501 26.78 7.5768 26.7673C7.60859 26.7539 7.6418 26.7433 7.67571 26.7369C7.74424 26.7228 7.81419 26.7228 7.88272 26.7369C7.91663 26.7433 7.94983 26.7539 7.98163 26.7673C8.01412 26.78 8.0445 26.7963 8.07347 26.8153C8.10244 26.8351 8.12928 26.857 8.15401 26.8817C8.17803 26.9058 8.20064 26.9333 8.21971 26.9623C8.23879 26.9905 8.25504 27.0216 8.26846 27.0534C8.28189 27.0852 8.29178 27.1191 8.29884 27.1523C8.30591 27.187 8.30944 27.2216 8.30944 27.2562C8.30944 27.3954 8.25292 27.5324 8.15401 27.6306C8.12928 27.6554 8.10244 27.6773 8.07347 27.697C8.0445 27.7161 8.01412 27.7324 7.98163 27.7458C7.94983 27.7585 7.91663 27.7691 7.88272 27.7755C7.8488 27.7825 7.81419 27.7861 7.77957 27.7861Z" fill="#7C6655"/>
<path d="M11.8113 7.77147H9.62679L6.86085 9.53418V7.77147H5.79192C5.17515 7.77147 4.67566 7.27197 4.67566 6.6552V1.11627C4.67566 0.499493 5.17515 0 5.79192 0H15.5161C16.1322 0 16.6324 0.499493 16.6324 1.11627V1.86445" fill="#E77200"/>
<path d="M11.8113 2.43811H7.32996V3.49786H11.8113V2.43811Z" fill="#7C6655"/>
<path d="M11.8113 4.38379H7.32996V5.44353H11.8113V4.38379Z" fill="#7C6655"/>
<path d="M22.6516 1.8645H12.9272C12.3108 1.8645 11.811 2.36421 11.811 2.9807V8.5202C11.811 9.13662 12.3107 9.63639 12.9272 9.63639H18.8163L21.5825 11.3986V9.63639H22.6515C23.2679 9.63639 23.7677 9.13669 23.7677 8.5202V2.98063C23.7678 2.36421 23.268 1.8645 22.6516 1.8645Z" fill="#88C9B3"/>
<path d="M21.113 4.30261H14.4659V5.36236H21.113V4.30261Z" fill="#7C6655"/>
<path d="M21.113 6.24805H14.4659V7.30779H21.113V6.24805Z" fill="#7C6655"/>
<path d="M3.20055 26.2001H2.4234V31.9825H3.20055V26.2001Z" fill="#51B7A6"/>
<path d="M27.8045 27.9762H24.8888V31.9827H27.8045V27.9762Z" fill="#FCF4DE"/>
<path d="M24.8888 27.9763V31.9828H17.5299V25.5657C17.5299 24.063 18.5868 22.8068 19.9991 22.5023C20.322 23.673 21.3937 24.5328 22.6668 24.5328C23.94 24.5328 25.0124 23.673 25.3346 22.5023C26.7462 22.8068 27.8045 24.063 27.8045 25.5657V27.9763H24.8888Z" fill="#E77200"/>
<path d="M24.6697 22.4309C24.8979 22.4309 25.1205 22.4556 25.3346 22.5023C25.0124 23.6729 23.9399 24.5327 22.6668 24.5327C21.3937 24.5327 20.322 23.6729 19.9991 22.5023C20.2132 22.4556 20.4364 22.4309 20.6646 22.4309H24.6697Z" fill="#E5DCC6"/>
<path d="M24.8886 26.5605H24.0796V31.9823H24.8886V26.5605Z" fill="#C65C05"/>
<path d="M24.8886 26.5605H24.0796V31.9823H24.8886V26.5605Z" fill="#C65C05"/>
<path d="M6.43609 22.6402C9.11913 22.6402 11.2942 20.4652 11.2942 17.7822C11.2942 15.0991 9.11913 12.9241 6.43609 12.9241C3.75304 12.9241 1.578 15.0991 1.578 17.7822C1.578 20.4652 3.75304 22.6402 6.43609 22.6402Z" fill="#FCF4DE"/>
<path d="M4.7578 17.5286C4.28529 17.5286 4.04833 16.9249 4.40158 16.606C4.57256 16.4517 4.83177 16.4261 5.02966 16.5442C5.2207 16.6582 5.32243 16.8896 5.27616 17.1075C5.22486 17.349 5.00564 17.5286 4.7578 17.5286Z" fill="#7C6655"/>
<path d="M9.22316 17.5287C9.00605 17.5287 8.80696 17.3913 8.72882 17.1894C8.64213 16.9654 8.72161 16.7037 8.91788 16.5656C9.30723 16.2918 9.84742 16.6555 9.7389 17.1182C9.68351 17.3547 9.46704 17.5287 9.22316 17.5287Z" fill="#7C6655"/>
<path d="M22.3845 22.6402C25.0675 22.6402 27.2425 20.4652 27.2425 17.7822C27.2425 15.0991 25.0675 12.9241 22.3845 12.9241C19.7014 12.9241 17.5264 15.0991 17.5264 17.7822C17.5264 20.4652 19.7014 22.6402 22.3845 22.6402Z" fill="#FCF4DE"/>
<path d="M23.0632 17.5287C22.8422 17.5287 22.6381 17.3854 22.5641 17.1771C22.4871 16.9599 22.562 16.7106 22.7472 16.5732C22.9321 16.4361 23.1936 16.436 23.3784 16.5732C23.5518 16.7019 23.6315 16.931 23.5737 17.1394C23.5109 17.3658 23.299 17.5287 23.0632 17.5287Z" fill="#7C6655"/>
<path d="M19.5978 17.5287C19.1366 17.5287 18.8954 16.951 19.2233 16.6237C19.3896 16.4578 19.6545 16.4222 19.8588 16.5379C20.0567 16.6499 20.1635 16.8846 20.1162 17.1076C20.065 17.3492 19.8457 17.5287 19.5978 17.5287Z" fill="#7C6655"/>
<path d="M21.3592 19.8808C21.1384 19.8808 20.9182 19.835 20.716 19.7464C20.5254 19.6629 20.3065 19.5322 20.1838 19.3594C20.0699 19.1991 20.083 18.9747 20.2154 18.829C20.3455 18.6858 20.5631 18.649 20.7329 18.742C20.8229 18.7913 20.8871 18.8756 20.9756 18.9285C21.0657 18.9823 21.1668 19.0165 21.2711 19.0286C21.4876 19.0539 21.7039 18.9829 21.8652 18.8371C22.0142 18.7026 22.2041 18.6386 22.3926 18.742C22.5634 18.8356 22.6495 19.0402 22.5974 19.2277C22.5348 19.4531 22.271 19.6145 22.0744 19.7127C21.8531 19.8232 21.6064 19.8808 21.3592 19.8808Z" fill="#7C6655"/>
<path d="M7.25265 20.19C7.03194 20.19 6.81166 20.1442 6.60946 20.0556C6.41892 19.9721 6.19997 19.8414 6.07733 19.6686C5.96344 19.5083 5.97651 19.2839 6.1089 19.1383C6.23897 18.995 6.45664 18.9582 6.62641 19.0512C6.71635 19.1005 6.78057 19.1848 6.8691 19.2377C6.95917 19.2915 7.06034 19.3257 7.16455 19.3378C7.38109 19.3631 7.59735 19.2921 7.75872 19.1463C7.90765 19.0118 8.09755 18.9479 8.28612 19.0512C8.45688 19.1448 8.543 19.3494 8.49093 19.5369C8.42833 19.7623 8.16446 19.9237 7.96791 20.0219C7.74663 20.1324 7.49993 20.19 7.25265 20.19Z" fill="#7C6655"/>
<path d="M27.8044 27.9762H24.8885V28.7271H27.8044V27.9762Z" fill="#E5DCC6"/>
</svg>
