<svg width="32" height="32" viewBox="0 0 32 32" fill="none" xmlns="http://www.w3.org/2000/svg">
<g clip-path="url(#clip0_14_355)">
<path d="M2.04761 25.4017C4.94694 23.873 7.69091 22.7397 10.1461 22.4224L13.3482 26.8561L12.8864 30.9666H1.03333V27.0933C1.03333 26.3717 1.41115 25.7416 2.04761 25.4017Z" fill="#0057FF" stroke="white"/>
<path d="M18.1333 26.72H13.8667L16 21.92L18.1333 26.72Z" fill="#FF0000"/>
<path d="M13.3333 31.4667L13.8667 26.72H18.1333L18.6667 31.4667H13.3333Z" fill="#FF0000"/>
<path d="M16 21.92L18.1333 26.72L22.4 20.8533L21.8667 18.72L16 21.92Z" fill="#0057FF"/>
<path d="M30.1867 24.96C27.2534 23.4133 24.48 22.24 21.8667 21.92H21.6L18.1333 26.72L18.6666 31.4667H31.4666V27.0934C31.4667 26.1867 30.9867 25.3867 30.1867 24.96Z" fill="#0057FF"/>
<path d="M30.1867 24.96C27.2534 23.4133 24.48 22.24 21.8667 21.92H21.6L21.44 22.1333C23.68 22.6133 26.0267 23.6266 28.5333 24.96C29.3333 25.3867 29.8133 26.1867 29.8133 27.0933V31.4666H31.4133V27.0933C31.4667 26.1867 30.9867 25.3867 30.1867 24.96Z" fill="#0057FF"/>
<path d="M1.81333 24.96C4.74664 23.4133 7.52001 22.24 10.1333 21.92H10.4L10.56 22.1333C8.32001 22.6133 5.97333 23.6266 3.4667 24.96C2.6667 25.3867 2.1867 26.1867 2.1867 27.0933V31.4666H0.533325V27.0933C0.533325 26.1867 1.01333 25.3867 1.81333 24.96Z" fill="#9BECEC"/>
<path d="M16 21.92L13.8667 26.72L9.60001 20.8533L10.1333 18.72L16 21.92Z" fill="#0057FF"/>
<path d="M19.2 12.5867C18.24 13.0667 17.12 13.3334 16 13.3334C14.88 13.3334 13.76 13.0667 12.8 12.5867V16.5334H19.2V12.5867V12.5867Z" fill="#898989"/>
<path d="M22.4 6.93333C22.4 10.4533 19.52 13.3333 16 13.3333C12.48 13.3333 9.60001 10.4533 9.60001 6.93333C9.60001 3.41333 12.48 0.533325 16 0.533325C19.52 0.533325 22.4 3.41333 22.4 6.93333Z" fill="#FFE100"/>
<path d="M16 0.533325C15.7333 0.533325 15.4667 0.533325 15.2 0.586638C18.3467 0.95995 20.8 3.67995 20.8 6.93333C20.8 10.1867 18.3467 12.9066 15.2 13.28C15.4667 13.3333 15.7333 13.3333 16 13.3333C19.52 13.3333 22.4 10.4533 22.4 6.93333C22.4 3.41333 19.52 0.533325 16 0.533325Z" fill="#FFA800"/>
<path d="M16 0.533325C16.2667 0.533325 16.5333 0.533325 16.8 0.586638C13.6533 0.95995 11.2 3.67995 11.2 6.93333C11.2 10.1867 13.6533 12.9066 16.8 13.28C16.5333 13.3333 16.2667 13.3333 16 13.3333C12.48 13.3333 9.60001 10.4533 9.60001 6.93333C9.60001 3.41333 12.48 0.533325 16 0.533325Z" fill="#F5EC9C"/>
<path d="M18.1333 27.2533H13.8666C13.7066 27.2533 13.4933 27.1466 13.4399 26.9866C13.3866 26.8266 13.3332 26.6666 13.3866 26.4533L15.5199 21.6533C15.6266 21.44 15.7866 21.3333 15.9999 21.3333C16.2132 21.3333 16.4266 21.44 16.4799 21.6533L18.5599 26.3466C18.6132 26.4533 18.6666 26.5599 18.6666 26.6666C18.6667 26.9867 18.4533 27.2533 18.1333 27.2533ZM14.6667 26.1867H17.28L16 23.2L14.6667 26.1867Z" fill="black"/>
<path d="M13.3333 32C13.1733 32 13.0133 31.9467 12.96 31.84C12.8533 31.7333 12.8 31.5733 12.8533 31.4133L13.3866 26.6666C13.4399 26.4 13.6533 26.1866 13.9199 26.1866H18.1866C18.4533 26.1866 18.6666 26.4 18.7199 26.6666L19.2532 31.4133C19.2532 31.5733 19.1999 31.7333 19.1466 31.84C19.0932 31.9467 18.8266 32 18.6666 32H13.3333ZM14.3467 27.2533L13.92 30.9333H18.08L17.6533 27.2533H14.3467Z" fill="white"/>
<path d="M18.1333 27.2533H18.08C17.8667 27.2533 17.7067 27.0933 17.6533 26.9333L15.52 22.1333C15.4133 21.8666 15.52 21.6 15.7333 21.44L21.6 18.24C21.76 18.1867 21.92 18.1333 22.08 18.24C22.24 18.2933 22.3467 18.4533 22.4 18.6133L22.9333 20.7466C22.9866 20.9066 22.9333 21.0666 22.8266 21.1733L18.56 27.04C18.4533 27.1467 18.2933 27.2533 18.1333 27.2533ZM16.6933 22.1333L18.24 25.6533L21.8133 20.7466L21.4933 19.5199L16.6933 22.1333Z" fill="white"/>
<path d="M31.4667 32H18.6667C18.4 32 18.1867 31.7867 18.1334 31.52L17.6001 26.7733C17.6001 26.6667 17.6001 26.5067 17.7068 26.4L21.1734 21.6C21.2801 21.44 21.4401 21.3867 21.6001 21.3867H21.8668H21.9201C24.2668 21.6534 26.8801 22.6134 30.4001 24.48C31.3601 25.0133 32.0001 26.0267 32.0001 27.0933V31.4667C32 31.7867 31.7867 32 31.4667 32ZM19.1467 30.9333H30.9334V27.0933C30.9334 26.4 30.5601 25.76 29.9201 25.3867C26.5601 23.6267 24.0534 22.72 21.8668 22.4L18.6668 26.8267L19.1467 30.9333Z" fill="white"/>
<path d="M13.3333 32H0.533312C0.213313 32 0 31.7867 0 31.4667V27.0933C0 25.9733 0.586688 24.96 1.6 24.48C5.12 22.6133 7.73331 21.6533 10.08 21.3867H10.1333H10.4C10.56 21.3867 10.72 21.4934 10.8267 21.6L14.2934 26.4C14.3467 26.5067 14.4001 26.6667 14.4001 26.7733L13.8667 31.52C13.8133 31.7867 13.6 32 13.3333 32ZM1.06669 30.9333H12.8534L13.3334 26.88L10.1334 22.4533C7.94669 22.72 5.49337 23.6266 2.08006 25.44C1.44006 25.76 1.06675 26.4 1.06675 27.0933V30.9333H1.06669Z" fill="white"/>
<path d="M16 13.8667C12.16 13.8667 9.06668 10.7734 9.06668 6.93337C9.06668 3.09337 12.16 0 16 0C19.84 0 22.9333 3.09331 22.9333 6.93331C22.9333 10.7733 19.84 13.8667 16 13.8667ZM16 1.06669C12.7467 1.06669 10.1333 3.68 10.1333 6.93337C10.1333 10.1867 12.7467 12.8 16 12.8C19.2533 12.8 21.8667 10.1867 21.8667 6.93331C21.8667 3.67994 19.2533 1.06669 16 1.06669Z" fill="white"/>
<path d="M19.7333 17.0667H12.2667V11.7867L13.0134 12.16C14.8801 13.0667 17.0667 13.0667 18.9334 12.16L19.6801 11.7867V17.0667H19.7333ZM13.3333 16H18.6666V13.3867C16.9599 14.0267 15.0399 14.0267 13.3333 13.3867V16Z" fill="white"/>
<path d="M13.8667 27.2533C13.7067 27.2533 13.5467 27.1467 13.44 27.04L9.17331 21.1733C9.06662 21.0133 9.06662 20.8533 9.06662 20.6933L9.59993 18.56C9.65325 18.4 9.75993 18.2933 9.91993 18.1867C10.0799 18.1334 10.2399 18.1334 10.3999 18.1867L16.2666 21.3867C16.5333 21.4934 16.5866 21.8134 16.4799 22.08L14.3466 26.88C14.2933 27.04 14.0799 27.2 13.9199 27.2C13.92 27.2533 13.8667 27.2533 13.8667 27.2533ZM10.1867 20.7467L13.76 25.6534L15.3067 22.1334L10.4534 19.5201L10.1867 20.7467Z" fill="white"/>
<path d="M14.9333 13.3333C14.6133 13.3333 14.4 13.12 14.4 12.8V8C14.4 7.09331 13.7067 6.4 12.8 6.4C12.48 6.4 12.2667 6.18669 12.2667 5.86669C12.2667 5.54669 12.48 5.33337 12.8 5.33337C14.2933 5.33337 15.4667 6.50669 15.4667 8.00006V12.8001C15.4667 13.12 15.2533 13.3333 14.9333 13.3333Z" fill="black"/>
<path d="M17.0667 13.3333C16.7467 13.3333 16.5334 13.12 16.5334 12.8V8C16.5334 6.50669 17.7067 5.33331 19.2001 5.33331C19.5201 5.33331 19.7334 5.54663 19.7334 5.86663C19.7334 6.18663 19.5201 6.39994 19.2001 6.39994C18.2934 6.39994 17.6001 7.09325 17.6001 7.99994V12.7999C17.6 13.12 17.3867 13.3333 17.0667 13.3333Z" fill="black"/>
<path d="M18.1333 10.1333H13.8666C13.5466 10.1333 13.3333 9.92002 13.3333 9.60002C13.3333 9.28002 13.5466 9.06671 13.8666 9.06671H18.1333C18.4533 9.06671 18.6666 9.28002 18.6666 9.60002C18.6667 9.92002 18.4533 10.1333 18.1333 10.1333Z" fill="black"/>
</g>
<defs>
<clipPath id="clip0_14_355">
<rect width="32" height="32" fill="white"/>
</clipPath>
</defs>
</svg>
