<svg width="32" height="32" viewBox="0 0 32 32" fill="none" xmlns="http://www.w3.org/2000/svg">
<path d="M14.6939 26.403L16 32H18.6859C19.8107 32 20.7225 31.0882 20.7225 29.9635V27.7091L14.6939 26.403Z" fill="#B4B4B4"/>
<path d="M11.2774 27.7091V29.9635C11.2774 31.0882 12.1892 32 13.314 32H16V26.403L11.2774 27.7091Z" fill="#E0E0E0"/>
<path d="M16 0L14.6939 25.6911L21.3105 24.3849C21.7166 22.4086 22.6987 20.6424 24.0748 19.2712L24.0755 19.272C26.0869 17.2274 27.3279 14.4226 27.3279 11.3279C27.3279 5.07169 22.2563 0 16 0Z" fill="#FFBA00"/>
<path d="M4.67206 11.3279C4.67206 14.4226 5.913 17.2274 7.92443 19.2719L7.92512 19.2711C9.30125 20.6424 10.2834 22.4086 10.6894 24.3849L16 25.6911V0C9.74375 0 4.67206 5.07169 4.67206 11.3279Z" fill="#FDE09C"/>
<path d="M21.5915 24.3849H16L14.6939 26.0471L16 27.7091H21.5915C22.0074 27.7091 22.3445 27.372 22.3445 26.9562V25.1379C22.3445 24.7219 22.0074 24.3849 21.5915 24.3849Z" fill="#707070"/>
<path d="M10.4085 24.3849C9.99261 24.3849 9.65555 24.7221 9.65555 25.1379V26.9561C9.65555 27.3719 9.99267 27.7091 10.4085 27.7091H16V24.3849H10.4085V24.3849Z" fill="#B4B4B4"/>
<path d="M16 8.5224L14.6939 11.3279L16 14.1334C17.5469 14.1334 18.8055 12.8749 18.8055 11.3279C18.8055 9.7809 17.5469 8.5224 16 8.5224Z" fill="#424242"/>
<path d="M24.2409 12.3075V10.3483H22.4083C22.2473 9.29097 21.8298 8.31697 21.2217 7.4916L22.5198 6.19347L21.1345 4.80816L19.8364 6.10629C19.0109 5.49822 18.037 5.08066 16.9796 4.91966V3.08704H16L15.347 5.53047L16 6.80479C18.494 6.80479 20.5231 8.83379 20.5231 11.3278C20.5231 13.8219 18.494 15.851 16 15.851L15.347 16.9985L16 19.5688H16.9796V17.7362C18.0369 17.5752 19.0108 17.1577 19.8363 16.5496L21.1345 17.8477L22.5198 16.4624L21.2216 15.1643C21.8297 14.3388 22.2473 13.3649 22.4083 12.3076H24.2408V12.3075H24.2409Z" fill="#424242"/>
<path d="M11.4769 11.3279C11.4769 8.83391 13.5059 6.80485 16 6.80485V3.08704H15.0204V4.9196C13.9631 5.0806 12.9891 5.49816 12.1637 6.10622L10.8656 4.8081L9.48025 6.19341L10.7784 7.49154C10.1703 8.31704 9.75275 9.29091 9.59175 10.3483H7.75919V12.3075H9.59175C9.75275 13.3648 10.1703 14.3388 10.7784 15.1642L9.48025 16.4623L10.8656 17.8477L12.1637 16.5495C12.9892 17.1576 13.9631 17.5752 15.0204 17.7362V19.5687H16V15.8509C13.506 15.851 11.4769 13.8219 11.4769 11.3279Z" fill="#707070"/>
<path d="M13.1945 11.3279C13.1945 12.8749 14.453 14.1334 16 14.1334V8.5224C14.453 8.5224 13.1945 9.7809 13.1945 11.3279Z" fill="#707070"/>
</svg>
